<?xml version="1.0" encoding="UTF-8"?>
<svg id="Calque_1" data-name="Calque 1" xmlns="http://www.w3.org/2000/svg" viewBox="0 0 4000 809.01">
  <defs>
    <style>
      .cls-1 {
        fill: #102d3a;
      }

      .cls-2 {
        fill: #58855c;
      }
    </style>
  </defs>
  <path class="cls-1" d="M755.25,770.2c-46.65-25.86-83.28-62.49-109.87-109.87-26.61-47.37-39.9-102.03-39.9-163.99s13.67-116.6,41-163.99c27.33-47.37,64.67-83.99,112.06-109.87,47.37-25.86,100.2-38.81,158.52-38.81s111.14,12.95,158.52,38.81c47.37,25.88,84.73,62.5,112.06,109.87,27.33,47.39,41,102.05,41,163.99s-14.04,116.62-42.09,163.99c-28.07,47.38-65.97,84.01-113.7,109.87-47.74,25.88-101.13,38.81-160.16,38.81s-110.79-12.93-157.43-38.81ZM990.84,655.41c24.41-13.48,43.9-33.7,58.49-60.67,14.57-26.96,21.87-59.75,21.87-98.39,0-57.57-15.13-101.84-45.37-132.83-30.25-30.97-67.24-46.46-110.97-46.46s-80.35,15.49-109.87,46.46c-29.52,30.99-44.28,75.26-44.28,132.83s14.38,101.86,43.18,132.83c28.78,30.99,65.05,46.46,108.78,46.46,27.69,0,53.74-6.73,78.17-20.22Z"/>
  <path class="cls-1" d="M1510.67,0v809.01h-153.06V0h153.06Z"/>
  <path class="cls-1" d="M2249.71,195.69v605.66h-154.15v-76.53c-19.68,26.24-45.37,46.84-77.08,61.77-31.7,14.93-66.14,22.41-103.31,22.41-47.39,0-89.29-10.01-125.72-30.06-36.45-20.04-65.05-49.55-85.82-88.55-20.77-38.98-31.16-85.44-31.16-139.39V195.69h153.06v333.44c0,48.1,12.03,85.1,36.08,110.96,24.05,25.88,56.85,38.81,98.39,38.81s75.43-12.93,99.48-38.81c24.05-25.86,36.08-62.86,36.08-110.96V195.69h154.15Z"/>
  <path class="cls-1" d="M2669.51,667.98l153.06-464.63h162.89l-224.12,605.66h-185.85l-223.02-605.66h163.99l153.06,464.63Z"/>
  <path class="cls-1" d="M3241.28,203.35v605.66h-153.06V203.35h153.06Z"/>
  <path class="cls-1" d="M3405.82,331.26c24.41-47.37,57.57-83.8,99.49-109.33,41.9-25.5,88.72-38.26,140.48-38.26,45.18,0,84.73,9.12,118.62,27.33,33.89,18.23,61.03,41.19,81.45,68.88v-86.37h154.15v605.66h-154.15v-88.55c-19.68,28.42-46.84,51.93-81.45,70.52-34.63,18.59-74.53,27.88-119.71,27.88-51.02,0-97.49-13.12-139.39-39.36-41.92-26.24-75.08-63.22-99.49-110.97-24.43-47.73-36.62-102.58-36.62-164.53s12.2-115.51,36.62-162.9ZM3823.99,400.68c-14.59-26.6-34.27-47.01-59.04-61.22-24.79-14.21-51.38-21.32-79.81-21.32s-54.66,6.94-78.71,20.77c-24.05,13.85-43.56,34.08-58.49,60.68-14.95,26.61-22.41,58.13-22.41,94.57s7.46,68.33,22.41,95.66c14.93,27.33,34.61,48.29,59.04,62.86,24.41,14.59,50.46,21.87,78.17,21.87s55.02-7.11,79.81-21.32c24.77-14.21,44.45-34.61,59.04-61.22,14.57-26.6,21.87-58.49,21.87-95.66s-7.29-69.05-21.87-95.66Z"/>
  <path class="cls-2" d="M130.27,782.22c-39.36-17.85-70.51-42.09-93.47-72.7C16.17,682.02,3.93,651.88.07,619.09c-.71-5.99,4.04-11.24,10.07-11.24h134.56c4.8,0,8.88,3.38,9.91,8.06,4.34,19.75,15.36,36.37,33.06,49.88,20.04,15.3,44.99,22.96,74.89,22.96s51.93-5.82,68.33-17.49c16.4-11.65,24.6-26.6,24.6-44.83,0-19.68-10.03-34.44-30.06-44.28-20.05-9.84-51.93-20.58-95.66-32.25-45.2-10.93-82.18-22.22-110.96-33.89-28.8-11.65-53.57-29.52-74.34-53.57-20.77-24.05-31.16-56.47-31.16-97.3,0-33.52,9.65-64.13,28.97-91.83,19.3-27.69,47.01-49.55,83.09-65.6,36.08-16.02,78.53-24.05,127.36-24.05,72.15,0,129.72,18.04,172.73,54.12,40.31,33.82,63.65,78.7,70.02,134.62.69,6.03-4,11.33-10.07,11.33h-126.2c-5.14,0-9.45-3.73-10.37-8.79-3.63-19.97-13.26-36.17-28.88-48.61-17.87-14.21-41.73-21.32-71.61-21.32-27.71,0-49.03,5.11-63.95,15.31-14.95,10.21-22.41,24.43-22.41,42.64,0,20.41,10.2,35.91,30.61,46.46,20.4,10.57,52.1,21.32,95.11,32.25,43.73,10.93,79.81,22.24,108.23,33.89,28.42,11.67,53.02,29.71,73.79,54.12,20.77,24.43,31.52,56.68,32.25,96.75,0,34.98-9.67,66.33-28.97,94.02-19.32,27.71-47.01,49.38-83.09,65.05-36.08,15.67-78.17,23.5-126.27,23.5s-94.02-8.93-133.38-26.79Z"/>
</svg>