<?xml version="1.0" encoding="UTF-8"?>
<svg id="Calque_1" data-name="Calque 1" xmlns="http://www.w3.org/2000/svg" viewBox="0 0 501.98 625.34">
  <defs>
    <style>
      .cls-1 {
        fill: #58855c;
      }
    </style>
  </defs>
  <path class="cls-1" d="M130.27,598.56c-39.36-17.85-70.51-42.09-93.47-72.7C16.17,498.36,3.93,468.21.07,435.42c-.71-5.99,4.04-11.24,10.07-11.24h134.56c4.8,0,8.88,3.38,9.91,8.06,4.34,19.75,15.36,36.37,33.06,49.88,20.04,15.3,44.99,22.96,74.89,22.96s51.93-5.82,68.33-17.49c16.4-11.65,24.6-26.6,24.6-44.83,0-19.68-10.03-34.44-30.06-44.28-20.05-9.84-51.93-20.58-95.66-32.25-45.2-10.93-82.18-22.22-110.96-33.89-28.8-11.65-53.57-29.52-74.34-53.57-20.77-24.05-31.16-56.47-31.16-97.3,0-33.52,9.65-64.13,28.97-91.83,19.3-27.69,47.01-49.55,83.09-65.6C161.43,8.03,203.88,0,252.72,0c72.15,0,129.72,18.04,172.73,54.12,40.31,33.82,63.65,78.7,70.02,134.62.69,6.03-4,11.33-10.07,11.33h-126.2c-5.14,0-9.45-3.73-10.37-8.79-3.63-19.97-13.26-36.17-28.88-48.61-17.87-14.21-41.73-21.32-71.61-21.32-27.71,0-49.03,5.11-63.95,15.31-14.95,10.21-22.41,24.43-22.41,42.64,0,20.41,10.2,35.91,30.61,46.46,20.4,10.57,52.1,21.32,95.11,32.25,43.73,10.93,79.81,22.24,108.23,33.89,28.42,11.67,53.02,29.71,73.79,54.12,20.77,24.43,31.52,56.68,32.25,96.75,0,34.98-9.67,66.33-28.97,94.02-19.32,27.71-47.01,49.38-83.09,65.05-36.08,15.67-78.17,23.5-126.27,23.5s-94.02-8.93-133.38-26.79Z"/>
</svg>